<svg width="24" height="24" viewBox="0 0 24 24" fill="none" xmlns="http://www.w3.org/2000/svg">
<path d="M23.5143 20.3619H20.9732C22.6599 18.1243 23.5888 15.3265 23.5888 12.4838C23.5888 5.60024 18.39 0 11.9993 0C5.60874 0 0.409715 5.60049 0.409715 12.4838C0.409715 15.327 1.33819 18.1248 3.02465 20.3619H0.485732C0.217608 20.3619 0 20.5795 0 20.8476V22.7211C0 22.9892 0.217608 23.2068 0.485732 23.2068H7.41979C7.68792 23.2068 7.90553 22.9892 7.90553 22.7211V20.6341C7.90553 20.5185 7.86448 20.407 7.78968 20.3194L7.76272 20.2876C7.73552 20.2553 7.70395 20.2268 7.66922 20.203C5.28282 18.5491 3.80012 15.5915 3.80012 12.4835C3.80012 7.46934 7.47833 3.39016 11.9993 3.39016C16.52 3.39016 20.1982 7.46958 20.1982 12.4835C20.1982 15.6046 18.7063 18.5685 16.3053 20.2191C16.1734 20.3097 16.0947 20.4593 16.0947 20.6191V22.7206C16.0947 22.9887 16.3123 23.2063 16.5804 23.2063H23.5143C23.7824 23.2063 24 22.9887 24 22.7206V20.8471C24 20.5792 23.7829 20.3619 23.5143 20.3619Z" fill="#131313"/>
</svg>
