<svg width="24" height="20" viewBox="0 0 24 20" fill="none" xmlns="http://www.w3.org/2000/svg">
<path d="M4.44732 16.5293C4.48007 16.5283 4.51282 16.5278 4.54557 16.5278H18.8922C20.3502 16.5278 21.5413 17.6673 21.6164 19.1008C23.1138 17.1068 24 14.6322 24 11.9508C24 5.35072 18.6271 0 11.9997 0C5.37235 0 0 5.35022 0 11.9508C0 14.6603 0.905888 17.1585 2.43199 19.1635C2.14481 17.875 3.08294 16.5775 4.44732 16.5293ZM11.4687 3.31209C11.4939 3.31209 11.5186 3.31259 11.5433 3.31309C11.6692 2.42298 12.0013 1.02308 12.8643 0.554942C12.9913 0.486202 13.151 0.533868 13.2256 0.6573C13.3062 0.791268 13.2573 0.964876 13.1193 1.03914C12.7006 1.26442 11.9171 1.87305 11.7322 3.32463C12.3252 3.38384 12.7706 3.6598 12.7706 4.28599C12.7706 5.002 12.1882 5.58203 11.4692 5.58203C10.7502 5.58203 10.1678 5.002 10.1678 4.28599C10.1673 3.56999 10.7497 3.31209 11.4687 3.31209ZM8.84778 7.62166H14.3007C15.3497 7.62166 16.2596 8.21123 16.7161 9.07575C16.5962 9.07575 16.4763 9.07575 16.3564 9.07625C16.1735 9.07625 15.9679 9.08578 15.844 9.22025C15.721 9.35322 15.711 9.58001 15.5538 9.66983C15.392 9.76215 15.1905 9.64574 15.059 9.51479C14.927 9.38333 14.7945 9.22176 14.6086 9.20721C14.4317 9.19366 14.2705 9.32914 14.1975 9.4902C14.0705 9.77068 14.2242 10.294 13.746 10.2679C13.4699 10.2529 13.2029 9.96285 13.1581 9.70395C13.1147 9.45207 13.2845 9.11188 12.9868 8.95834C12.9182 8.92322 12.8381 8.9197 12.7615 8.9172C12.3449 8.90365 11.9247 8.8901 11.5151 8.96787C11.2113 9.02557 10.919 9.13245 10.6172 9.19868C9.60403 9.42196 8.49409 9.15703 7.69199 8.50124C7.54588 8.38182 7.41136 8.25137 7.28439 8.11288C7.72726 7.8038 8.26585 7.62166 8.84778 7.62166ZM6.56039 10.9478C6.57197 10.9478 6.58306 10.9478 6.59465 10.9478H16.5539C16.5816 10.9478 16.6093 10.9483 16.637 10.9488C18.3898 11.001 19.1018 13.2278 17.7283 14.3131C17.5364 14.4646 17.359 14.6081 17.221 14.725C16.9947 14.9167 16.7589 15.1074 16.4803 15.2117C16.2395 15.302 15.978 15.3231 15.7205 15.3151C15.2565 15.3005 14.795 15.1937 14.3728 15.002C13.9773 14.8229 13.616 14.571 13.2105 14.4149C12.8049 14.2589 12.3237 14.2102 11.9524 14.435C11.4697 14.727 11.2888 15.4024 10.7649 15.6126C10.3149 15.7927 9.80808 15.5479 9.42668 15.2498C8.99087 14.9092 8.61602 14.4902 8.14494 14.2002C7.67385 13.9107 7.05464 13.7687 6.56945 14.0351C6.19007 14.2433 5.96083 14.6944 6.01675 15.1224C5.78902 15.0326 5.5754 14.9137 5.3789 14.7717C3.72583 13.575 4.51735 10.9729 6.56039 10.9478Z" fill="#D11D65"/>
</svg>
