<svg width="38" height="38" viewBox="0 0 38 38" fill="none" xmlns="http://www.w3.org/2000/svg">
<path d="M19 38C29.4934 38 38 29.4934 38 19C38 8.5066 29.4934 0 19 0C8.5066 0 0 8.5066 0 19C0 29.4934 8.5066 38 19 38Z" fill="#F0F7FB"/>
<path d="M8.14503 18.5839C8.14503 18.5839 17.5567 14.5798 20.8208 13.1699C22.0721 12.606 26.3154 10.8013 26.3154 10.8013C26.3154 10.8013 28.274 10.0118 28.1107 11.9292C28.0563 12.7188 27.6211 15.4821 27.1859 18.4711C26.533 22.7007 25.8258 27.3251 25.8258 27.3251C25.8258 27.3251 25.717 28.6222 24.7922 28.8478C23.8674 29.0734 22.344 28.0583 22.0721 27.8327C21.8544 27.6635 17.9919 25.1257 16.5774 23.885C16.1966 23.5467 15.7614 22.87 16.6318 22.0804C18.5903 20.2193 20.9296 17.9072 22.344 16.4409C22.9969 15.7641 23.6497 14.1851 20.9296 16.1025C17.067 18.8659 13.2589 21.46 13.2589 21.46C13.2589 21.46 12.3884 22.024 10.7563 21.5164C9.12422 21.0089 7.22013 20.3321 7.22013 20.3321C7.22013 20.3321 5.91455 19.4862 8.14503 18.5839Z" fill="#131313"/>
</svg>
