<svg width="24" height="24" viewBox="0 0 24 24" fill="none" xmlns="http://www.w3.org/2000/svg">
<path d="M24 12C24 18.6274 18.6274 24 12 24C5.37259 24 0 18.6274 0 12C0 5.37259 5.37259 0 12 0C18.6274 0 24 5.37259 24 12Z" fill="#4B54FD"/>
<path d="M20.1909 5.16866C20.5941 5.08226 20.8965 5.03906 21.0981 5.03906C21.4149 5.03906 21.6453 5.11106 21.7893 5.25506C21.9477 5.38466 22.0269 5.62226 22.0269 5.96786C22.0269 7.63826 21.5517 9.79826 20.6013 12.4479C19.6653 15.0831 18.6861 17.0847 17.6637 18.4527C17.3037 18.9279 17.0085 19.2447 16.7781 19.4031C16.5621 19.5615 16.2957 19.6407 15.9789 19.6407C15.8061 19.6407 15.5757 19.6263 15.2877 19.5975C14.7261 16.5735 13.8261 13.3983 12.5877 10.0719C12.1269 11.6703 11.5509 13.2543 10.8597 14.8239C10.1829 16.3791 9.52049 17.5887 8.87249 18.4527C8.51249 18.9279 8.21729 19.2447 7.98689 19.4031C7.77089 19.5615 7.50449 19.6407 7.18769 19.6407C7.02929 19.6407 6.80609 19.6263 6.51809 19.5975C6.10049 17.2935 5.36609 14.6439 4.31489 11.6487C3.27809 8.63906 2.39969 6.75266 1.67969 5.98946C2.27009 5.45666 2.79569 5.19026 3.25649 5.19026C3.67409 5.19026 4.01249 5.49986 4.27169 6.11906C4.80449 7.37186 5.40929 9.16466 6.08609 11.4975C6.76289 13.8303 7.31009 15.9111 7.72769 17.7399C8.50529 16.8039 9.32609 15.0759 10.1901 12.5559C11.0541 10.0215 11.4861 7.92626 11.4861 6.27026C11.4861 5.75186 11.4573 5.38466 11.3997 5.16866C11.8029 5.08226 12.1053 5.03906 12.3069 5.03906C12.6237 5.03906 12.8541 5.11106 12.9981 5.25506C13.1565 5.38466 13.2357 5.62226 13.2357 5.96786C13.2357 6.38546 13.1997 6.79586 13.1277 7.19906C14.0781 8.69666 15.2013 12.2103 16.4973 17.7399C17.2749 16.7895 18.0957 15.0543 18.9597 12.5343C19.8381 10.0143 20.2773 7.92626 20.2773 6.27026C20.2773 5.75186 20.2485 5.38466 20.1909 5.16866Z" fill="white"/>
</svg>
