<svg width="24" height="24" viewBox="0 0 24 24" fill="none" xmlns="http://www.w3.org/2000/svg">
<path d="M24 12C24 18.6274 18.6274 24 12 24C5.37259 24 0 18.6274 0 12C0 5.37259 5.37259 0 12 0C18.6274 0 24 5.37259 24 12Z" fill="#FFCB3D"/>
<path d="M20.1913 5.16964C20.5945 5.08324 20.8969 5.04004 21.0985 5.04004C21.4153 5.04004 21.6457 5.11204 21.7897 5.25604C21.9481 5.38564 22.0273 5.62324 22.0273 5.96884C22.0273 7.63924 21.5521 9.79924 20.6017 12.4488C19.6657 15.084 18.6865 17.0856 17.6641 18.4536C17.3041 18.9288 17.0089 19.2456 16.7785 19.404C16.5625 19.5624 16.2961 19.6416 15.9793 19.6416C15.8065 19.6416 15.5761 19.6272 15.2881 19.5984C14.7265 16.5744 13.8265 13.3992 12.5881 10.0728C12.1273 11.6712 11.5513 13.2552 10.8601 14.8248C10.1833 16.38 9.52085 17.5896 8.87285 18.4536C8.51285 18.9288 8.21765 19.2456 7.98725 19.404C7.77125 19.5624 7.50485 19.6416 7.18805 19.6416C7.02965 19.6416 6.80645 19.6272 6.51845 19.5984C6.10085 17.2944 5.36645 14.6448 4.31525 11.6496C3.27845 8.64004 2.40005 6.75364 1.68005 5.99044C2.27045 5.45764 2.79605 5.19124 3.25685 5.19124C3.67445 5.19124 4.01285 5.50084 4.27205 6.12004C4.80485 7.37284 5.40965 9.16564 6.08645 11.4984C6.76325 13.8312 7.31045 15.912 7.72805 17.7408C8.50565 16.8048 9.32645 15.0768 10.1905 12.5568C11.0545 10.0224 11.4865 7.92724 11.4865 6.27124C11.4865 5.75284 11.4577 5.38564 11.4001 5.16964C11.8033 5.08324 12.1057 5.04004 12.3073 5.04004C12.6241 5.04004 12.8545 5.11204 12.9985 5.25604C13.1569 5.38564 13.2361 5.62324 13.2361 5.96884C13.2361 6.38644 13.2001 6.79684 13.1281 7.20004C14.0785 8.69764 15.2017 12.2112 16.4977 17.7408C17.2753 16.7904 18.0961 15.0552 18.9601 12.5352C19.8385 10.0152 20.2777 7.92724 20.2777 6.27124C20.2777 5.75284 20.2489 5.38564 20.1913 5.16964Z" fill="white"/>
</svg>
