<svg width="60" height="60" viewBox="0 0 60 60" fill="none" xmlns="http://www.w3.org/2000/svg">
<path d="M60 30C60 46.5685 46.5685 60 30 60C13.4315 60 0 46.5685 0 30C0 13.4315 13.4315 0 30 0C46.5685 0 60 13.4315 60 30Z" fill="#4B54FD"/>
<path d="M50.4782 12.9241C51.4862 12.7081 52.2422 12.6001 52.7462 12.6001C53.5382 12.6001 54.1142 12.7801 54.4742 13.1401C54.8702 13.4641 55.0682 14.0581 55.0682 14.9221C55.0682 19.0981 53.8802 24.4981 51.5042 31.1221C49.1642 37.7101 46.7162 42.7141 44.1602 46.1341C43.2602 47.3221 42.5222 48.1141 41.9462 48.5101C41.4062 48.9061 40.7402 49.1041 39.9482 49.1041C39.5162 49.1041 38.9402 49.0681 38.2202 48.9961C36.8162 41.4361 34.5662 33.4981 31.4702 25.1821C30.3182 29.1781 28.8782 33.1381 27.1502 37.0621C25.4582 40.9501 23.8022 43.9741 22.1822 46.1341C21.2822 47.3221 20.5442 48.1141 19.9682 48.5101C19.4282 48.9061 18.7622 49.1041 17.9702 49.1041C17.5742 49.1041 17.0162 49.0681 16.2962 48.9961C15.2522 43.2361 13.4162 36.6121 10.7882 29.1241C8.1962 21.6001 6.0002 16.8841 4.2002 14.9761C5.6762 13.6441 6.9902 12.9781 8.1422 12.9781C9.1862 12.9781 10.0322 13.7521 10.6802 15.3001C12.0122 18.4321 13.5242 22.9141 15.2162 28.7461C16.9082 34.5781 18.2762 39.7801 19.3202 44.3521C21.2642 42.0121 23.3162 37.6921 25.4762 31.3921C27.6362 25.0561 28.7162 19.8181 28.7162 15.6781C28.7162 14.3821 28.6442 13.4641 28.5002 12.9241C29.5082 12.7081 30.2642 12.6001 30.7682 12.6001C31.5602 12.6001 32.1362 12.7801 32.4962 13.1401C32.8922 13.4641 33.0902 14.0581 33.0902 14.9221C33.0902 15.9661 33.0002 16.9921 32.8202 18.0001C35.1962 21.7441 38.0042 30.5281 41.2442 44.3521C43.1882 41.9761 45.2402 37.6381 47.4002 31.3381C49.5962 25.0381 50.6942 19.8181 50.6942 15.6781C50.6942 14.3821 50.6222 13.4641 50.4782 12.9241Z" fill="#F0F7FB"/>
</svg>
